<mxfile host="app.diagrams.net" modified="2023-12-05T11:02:09.644Z" agent="Mozilla/5.0 (Windows NT 10.0; Win64; x64) AppleWebKit/537.36 (KHTML, like Gecko) Chrome/120.0.0.0 Safari/537.36" etag="IcR_FjpSKo7x-9cdY_la" version="22.1.5" type="device">
  <diagram name="Sida-1" id="MzAe4AkPnwdhP1O64lhZ">
    <mxGraphModel dx="833" dy="645" grid="1" gridSize="10" guides="1" tooltips="1" connect="1" arrows="1" fold="1" page="1" pageScale="1" pageWidth="827" pageHeight="1169" math="0" shadow="0">
      <root>
        <mxCell id="0" />
        <mxCell id="1" parent="0" />
        <mxCell id="gxFCZdxq8-a961sb9cm7-2" value="" style="rounded=0;whiteSpace=wrap;html=1;movable=0;resizable=0;rotatable=0;deletable=0;editable=0;locked=1;connectable=0;" vertex="1" parent="1">
          <mxGeometry x="41" y="81" width="280" height="360" as="geometry" />
        </mxCell>
        <mxCell id="gxFCZdxq8-a961sb9cm7-3" value="" style="rounded=0;whiteSpace=wrap;html=1;movable=0;resizable=0;rotatable=0;deletable=0;editable=0;locked=1;connectable=0;" vertex="1" parent="1">
          <mxGeometry x="520" y="81" width="280" height="360" as="geometry" />
        </mxCell>
        <mxCell id="gxFCZdxq8-a961sb9cm7-4" value="" style="rounded=0;whiteSpace=wrap;html=1;movable=0;resizable=0;rotatable=0;deletable=0;editable=0;locked=1;connectable=0;" vertex="1" parent="1">
          <mxGeometry x="41" y="502" width="280" height="361" as="geometry" />
        </mxCell>
        <mxCell id="gxFCZdxq8-a961sb9cm7-5" value="" style="rounded=0;whiteSpace=wrap;html=1;" vertex="1" parent="1">
          <mxGeometry x="520" y="502" width="280" height="361" as="geometry" />
        </mxCell>
        <mxCell id="gxFCZdxq8-a961sb9cm7-6" value="AddPlantWindow" style="text;html=1;strokeColor=none;fillColor=none;align=center;verticalAlign=middle;whiteSpace=wrap;rounded=0;" vertex="1" parent="1">
          <mxGeometry x="520" y="40" width="100" height="30" as="geometry" />
        </mxCell>
        <mxCell id="gxFCZdxq8-a961sb9cm7-7" value="PlantWindow" style="text;html=1;strokeColor=none;fillColor=none;align=center;verticalAlign=middle;whiteSpace=wrap;rounded=0;" vertex="1" parent="1">
          <mxGeometry x="50" y="40" width="60" height="30" as="geometry" />
        </mxCell>
        <mxCell id="gxFCZdxq8-a961sb9cm7-8" value="PlantDetailsWindow" style="text;html=1;strokeColor=none;fillColor=none;align=center;verticalAlign=middle;whiteSpace=wrap;rounded=0;" vertex="1" parent="1">
          <mxGeometry x="41" y="463" width="109" height="31" as="geometry" />
        </mxCell>
        <mxCell id="gxFCZdxq8-a961sb9cm7-9" value="MyGardenWindow" style="text;html=1;strokeColor=none;fillColor=none;align=center;verticalAlign=middle;whiteSpace=wrap;rounded=0;" vertex="1" parent="1">
          <mxGeometry x="520" y="463" width="109" height="31" as="geometry" />
        </mxCell>
        <mxCell id="gxFCZdxq8-a961sb9cm7-10" value="&lt;ul&gt;&lt;li&gt;Se och söka på växter.&lt;/li&gt;&lt;/ul&gt;&lt;ul&gt;&lt;li&gt;Sökfunktion för växtnamn.&lt;/li&gt;&lt;/ul&gt;&lt;ul&gt;&lt;li&gt;Knapp för att komma till AddPlantWindow.&lt;/li&gt;&lt;/ul&gt;&lt;ul&gt;&lt;li&gt;Knappar &quot;Details&quot; och &quot;Delete&quot; för att hantera valda växter i listan, med&lt;br&gt;tillhörande varningsmeddelanden.&lt;/li&gt;&lt;/ul&gt;&lt;ul&gt;&lt;li&gt;Om man tar bort en växt ska även tillhörande skötselråd försvinna från&lt;br&gt;databasen.&lt;br&gt;&lt;/li&gt;&lt;/ul&gt;" style="text;strokeColor=none;fillColor=none;html=1;whiteSpace=wrap;verticalAlign=middle;overflow=hidden;" vertex="1" parent="1">
          <mxGeometry x="300" y="100" width="180" height="280" as="geometry" />
        </mxCell>
        <mxCell id="gxFCZdxq8-a961sb9cm7-11" value="&lt;ul&gt;&lt;li&gt;Lägga till ny växtinformation.&amp;nbsp;&lt;/li&gt;&lt;/ul&gt;&lt;ul&gt;&lt;li&gt;Fält för växtens namn, skötselråd och &lt;strike&gt;planteringsdatum&lt;/strike&gt;.&amp;nbsp;&lt;/li&gt;&lt;/ul&gt;&lt;ul&gt;&lt;li&gt;Knapp för att spara den nya växten.&amp;nbsp;&lt;/li&gt;&lt;/ul&gt;&lt;ul&gt;&lt;li&gt;Varningsmeddelande om informationen inte är komplett.&amp;nbsp;&lt;/li&gt;&lt;/ul&gt;&lt;ul&gt;&lt;li&gt;Om man försöker lägga till en växt som redan finns i databasen ska ett&lt;br&gt;varningsmeddelande dyka upp.&lt;br&gt;&lt;/li&gt;&lt;/ul&gt;" style="text;strokeColor=none;fillColor=none;html=1;whiteSpace=wrap;verticalAlign=middle;overflow=hidden;" vertex="1" parent="1">
          <mxGeometry x="780" y="100" width="180" height="280" as="geometry" />
        </mxCell>
        <mxCell id="gxFCZdxq8-a961sb9cm7-12" value="&lt;ul&gt;&lt;li&gt;&lt;font color=&quot;#cc99ff&quot;&gt;Visa användarens trädgård och alla växter i den.&amp;nbsp;&lt;/font&gt;&lt;/li&gt;&lt;/ul&gt;&lt;ul&gt;&lt;li&gt;&lt;font color=&quot;#003300&quot;&gt;GreenThumb 3&lt;br&gt;Visa och arrangera växter i en virtuell trädgård.&lt;/font&gt;&lt;br&gt;&lt;/li&gt;&lt;/ul&gt;" style="text;strokeColor=none;fillColor=none;html=1;whiteSpace=wrap;verticalAlign=middle;overflow=hidden;" vertex="1" parent="1">
          <mxGeometry x="780" y="530" width="180" height="280" as="geometry" />
        </mxCell>
        <mxCell id="gxFCZdxq8-a961sb9cm7-13" value="&lt;ul&gt;&lt;li&gt;Visa och &lt;font color=&quot;#003300&quot;&gt;ändra&lt;/font&gt; detaljer om en växt.&amp;nbsp;&lt;/li&gt;&lt;/ul&gt;&lt;ul&gt;&lt;li&gt;Låsta inputrutor för växtinformation.&amp;nbsp;&lt;/li&gt;&lt;/ul&gt;&lt;ul&gt;&lt;li&gt;&lt;font color=&quot;#003300&quot;&gt;Knappar för att låsa upp inputrutor för att möjliggöra ändringar.&amp;nbsp;&lt;/font&gt;&lt;/li&gt;&lt;/ul&gt;&lt;ul&gt;&lt;li&gt;&lt;font color=&quot;#003300&quot;&gt;En knapp för att spara ändringar (namn, skötselråd och planteringsdatum).&amp;nbsp;&lt;/font&gt;&lt;/li&gt;&lt;/ul&gt;&lt;ul&gt;&lt;li&gt;&lt;font color=&quot;#cc99ff&quot;&gt;Knapp för att lägga till växten i sin trädgård (se MyGardenWindow nedan).&lt;/font&gt;&lt;br&gt;&lt;/li&gt;&lt;/ul&gt;" style="text;strokeColor=none;fillColor=none;html=1;whiteSpace=wrap;verticalAlign=middle;overflow=hidden;" vertex="1" parent="1">
          <mxGeometry x="300" y="520" width="180" height="280" as="geometry" />
        </mxCell>
        <mxCell id="gxFCZdxq8-a961sb9cm7-14" value="" style="rounded=0;whiteSpace=wrap;html=1;" vertex="1" parent="1">
          <mxGeometry x="50" y="949" width="280" height="361" as="geometry" />
        </mxCell>
        <mxCell id="gxFCZdxq8-a961sb9cm7-15" value="" style="rounded=0;whiteSpace=wrap;html=1;" vertex="1" parent="1">
          <mxGeometry x="529" y="949" width="280" height="361" as="geometry" />
        </mxCell>
        <mxCell id="gxFCZdxq8-a961sb9cm7-16" value="SignInWindow" style="text;html=1;strokeColor=none;fillColor=none;align=center;verticalAlign=middle;whiteSpace=wrap;rounded=0;" vertex="1" parent="1">
          <mxGeometry x="50" y="910" width="109" height="31" as="geometry" />
        </mxCell>
        <mxCell id="gxFCZdxq8-a961sb9cm7-17" value="RegisterWindow" style="text;html=1;strokeColor=none;fillColor=none;align=center;verticalAlign=middle;whiteSpace=wrap;rounded=0;" vertex="1" parent="1">
          <mxGeometry x="529" y="910" width="109" height="31" as="geometry" />
        </mxCell>
        <mxCell id="gxFCZdxq8-a961sb9cm7-18" value="&lt;ul&gt;&lt;li&gt;&lt;font color=&quot;#cc99ff&quot;&gt;Registrera en ny användare.&amp;nbsp;&lt;/font&gt;&lt;/li&gt;&lt;/ul&gt;&lt;ul&gt;&lt;li&gt;&lt;font color=&quot;#cc99ff&quot;&gt;Validering för att förhindra duplicering av användarnamn.&lt;/font&gt;&lt;br&gt;&lt;/li&gt;&lt;/ul&gt;" style="text;strokeColor=none;fillColor=none;html=1;whiteSpace=wrap;verticalAlign=middle;overflow=hidden;" vertex="1" parent="1">
          <mxGeometry x="790" y="980" width="180" height="280" as="geometry" />
        </mxCell>
        <mxCell id="gxFCZdxq8-a961sb9cm7-19" value="&lt;div&gt;&lt;br&gt;&lt;/div&gt;&lt;ul&gt;&lt;li&gt;&lt;font color=&quot;#cc99ff&quot;&gt;Logga in med användarnamn och lösenord.&lt;/font&gt;&lt;br&gt;&lt;/li&gt;&lt;/ul&gt;" style="text;strokeColor=none;fillColor=none;html=1;whiteSpace=wrap;verticalAlign=middle;overflow=hidden;" vertex="1" parent="1">
          <mxGeometry x="309" y="967" width="180" height="280" as="geometry" />
        </mxCell>
        <mxCell id="gxFCZdxq8-a961sb9cm7-20" value="" style="rounded=1;whiteSpace=wrap;html=1;" vertex="1" parent="1">
          <mxGeometry x="56" y="175" width="104" height="25" as="geometry" />
        </mxCell>
        <mxCell id="gxFCZdxq8-a961sb9cm7-21" value="" style="rounded=1;whiteSpace=wrap;html=1;" vertex="1" parent="1">
          <mxGeometry x="173" y="130" width="127" height="220" as="geometry" />
        </mxCell>
        <mxCell id="gxFCZdxq8-a961sb9cm7-22" value="Delete" style="rounded=1;whiteSpace=wrap;html=1;" vertex="1" parent="1">
          <mxGeometry x="226" y="369" width="70" height="31" as="geometry" />
        </mxCell>
        <mxCell id="gxFCZdxq8-a961sb9cm7-24" value="Add new Plant" style="rounded=1;whiteSpace=wrap;html=1;" vertex="1" parent="1">
          <mxGeometry x="66" y="369" width="70" height="31" as="geometry" />
        </mxCell>
        <mxCell id="gxFCZdxq8-a961sb9cm7-27" value="Details" style="rounded=1;whiteSpace=wrap;html=1;" vertex="1" parent="1">
          <mxGeometry x="146" y="369" width="70" height="31" as="geometry" />
        </mxCell>
        <mxCell id="gxFCZdxq8-a961sb9cm7-28" value="" style="rounded=1;whiteSpace=wrap;html=1;" vertex="1" parent="1">
          <mxGeometry x="540" y="245" width="137.63" height="115" as="geometry" />
        </mxCell>
        <mxCell id="gxFCZdxq8-a961sb9cm7-29" value="" style="rounded=1;whiteSpace=wrap;html=1;" vertex="1" parent="1">
          <mxGeometry x="641.75" y="140" width="143.5" height="35" as="geometry" />
        </mxCell>
        <mxCell id="gxFCZdxq8-a961sb9cm7-37" value="Name of plant" style="text;html=1;strokeColor=none;fillColor=none;align=center;verticalAlign=middle;whiteSpace=wrap;rounded=0;" vertex="1" parent="1">
          <mxGeometry x="540" y="142.5" width="90" height="30" as="geometry" />
        </mxCell>
        <mxCell id="gxFCZdxq8-a961sb9cm7-38" value="Instruction title" style="text;html=1;strokeColor=none;fillColor=none;align=center;verticalAlign=middle;whiteSpace=wrap;rounded=0;" vertex="1" parent="1">
          <mxGeometry x="523.5" y="180" width="120" height="30" as="geometry" />
        </mxCell>
        <mxCell id="gxFCZdxq8-a961sb9cm7-40" value="Save plant" style="rounded=1;whiteSpace=wrap;html=1;" vertex="1" parent="1">
          <mxGeometry x="720" y="399" width="70" height="31" as="geometry" />
        </mxCell>
        <mxCell id="gxFCZdxq8-a961sb9cm7-41" value="&lt;h2&gt;Add a Plant&lt;/h2&gt;" style="text;html=1;strokeColor=none;fillColor=none;align=center;verticalAlign=middle;whiteSpace=wrap;rounded=0;" vertex="1" parent="1">
          <mxGeometry x="529" y="100" width="111" height="40" as="geometry" />
        </mxCell>
        <mxCell id="gxFCZdxq8-a961sb9cm7-42" value="&lt;h2&gt;Plants&lt;/h2&gt;" style="text;html=1;strokeColor=none;fillColor=none;align=center;verticalAlign=middle;whiteSpace=wrap;rounded=0;" vertex="1" parent="1">
          <mxGeometry x="50" y="100" width="70" height="40" as="geometry" />
        </mxCell>
        <mxCell id="gxFCZdxq8-a961sb9cm7-43" value="&lt;h2&gt;Plant Details&lt;/h2&gt;" style="text;html=1;strokeColor=none;fillColor=none;align=center;verticalAlign=middle;whiteSpace=wrap;rounded=0;" vertex="1" parent="1">
          <mxGeometry x="50" y="527" width="111" height="38" as="geometry" />
        </mxCell>
        <mxCell id="gxFCZdxq8-a961sb9cm7-44" value="&lt;h2&gt;My Garden&lt;/h2&gt;" style="text;html=1;strokeColor=none;fillColor=none;align=center;verticalAlign=middle;whiteSpace=wrap;rounded=0;" vertex="1" parent="1">
          <mxGeometry x="529" y="527" width="111" height="38" as="geometry" />
        </mxCell>
        <mxCell id="gxFCZdxq8-a961sb9cm7-45" value="&lt;h2&gt;Sign in&lt;/h2&gt;" style="text;html=1;strokeColor=none;fillColor=none;align=center;verticalAlign=middle;whiteSpace=wrap;rounded=0;" vertex="1" parent="1">
          <mxGeometry x="57.5" y="974" width="72.5" height="38" as="geometry" />
        </mxCell>
        <mxCell id="gxFCZdxq8-a961sb9cm7-46" value="&lt;h2&gt;Register User&lt;/h2&gt;" style="text;html=1;strokeColor=none;fillColor=none;align=center;verticalAlign=middle;whiteSpace=wrap;rounded=0;" vertex="1" parent="1">
          <mxGeometry x="540" y="974" width="130" height="38" as="geometry" />
        </mxCell>
        <mxCell id="gxFCZdxq8-a961sb9cm7-47" style="edgeStyle=orthogonalEdgeStyle;rounded=0;orthogonalLoop=1;jettySize=auto;html=1;exitX=0.5;exitY=1;exitDx=0;exitDy=0;" edge="1" parent="1" source="gxFCZdxq8-a961sb9cm7-28" target="gxFCZdxq8-a961sb9cm7-28">
          <mxGeometry relative="1" as="geometry" />
        </mxCell>
        <mxCell id="gxFCZdxq8-a961sb9cm7-48" value="" style="rounded=1;whiteSpace=wrap;html=1;" vertex="1" parent="1">
          <mxGeometry x="692.88" y="260" width="91.75" height="125" as="geometry" />
        </mxCell>
        <mxCell id="gxFCZdxq8-a961sb9cm7-50" value="" style="rounded=1;whiteSpace=wrap;html=1;" vertex="1" parent="1">
          <mxGeometry x="641.75" y="180" width="143.5" height="35" as="geometry" />
        </mxCell>
        <mxCell id="gxFCZdxq8-a961sb9cm7-51" value="Instruction" style="text;html=1;strokeColor=none;fillColor=none;align=center;verticalAlign=middle;whiteSpace=wrap;rounded=0;" vertex="1" parent="1">
          <mxGeometry x="529" y="215" width="91" height="30" as="geometry" />
        </mxCell>
        <mxCell id="gxFCZdxq8-a961sb9cm7-52" value="Instructions for {plant.name}" style="text;html=1;strokeColor=none;fillColor=none;align=center;verticalAlign=middle;whiteSpace=wrap;rounded=0;" vertex="1" parent="1">
          <mxGeometry x="685.75" y="225" width="106" height="30" as="geometry" />
        </mxCell>
        <mxCell id="gxFCZdxq8-a961sb9cm7-53" value="Save instruction" style="rounded=1;whiteSpace=wrap;html=1;" vertex="1" parent="1">
          <mxGeometry x="539.5" y="370" width="70" height="40" as="geometry" />
        </mxCell>
        <mxCell id="gxFCZdxq8-a961sb9cm7-55" value="Find plant" style="text;html=1;strokeColor=none;fillColor=none;align=center;verticalAlign=middle;whiteSpace=wrap;rounded=0;" vertex="1" parent="1">
          <mxGeometry x="50" y="145" width="70" height="30" as="geometry" />
        </mxCell>
        <mxCell id="gxFCZdxq8-a961sb9cm7-64" value="" style="rounded=1;whiteSpace=wrap;html=1;" vertex="1" parent="1">
          <mxGeometry x="63.37" y="665" width="96.63" height="105" as="geometry" />
        </mxCell>
        <mxCell id="gxFCZdxq8-a961sb9cm7-65" value="" style="rounded=1;whiteSpace=wrap;html=1;" vertex="1" parent="1">
          <mxGeometry x="165.12" y="560" width="143.5" height="35" as="geometry" />
        </mxCell>
        <mxCell id="gxFCZdxq8-a961sb9cm7-66" value="Name of plant" style="text;html=1;strokeColor=none;fillColor=none;align=center;verticalAlign=middle;whiteSpace=wrap;rounded=0;" vertex="1" parent="1">
          <mxGeometry x="63.37" y="562.5" width="90" height="30" as="geometry" />
        </mxCell>
        <mxCell id="gxFCZdxq8-a961sb9cm7-67" value="Instruction title" style="text;html=1;strokeColor=none;fillColor=none;align=center;verticalAlign=middle;whiteSpace=wrap;rounded=0;" vertex="1" parent="1">
          <mxGeometry x="46.87" y="600" width="120" height="30" as="geometry" />
        </mxCell>
        <mxCell id="gxFCZdxq8-a961sb9cm7-68" value="Save changes" style="rounded=1;whiteSpace=wrap;html=1;" vertex="1" parent="1">
          <mxGeometry x="216" y="817" width="93.37" height="31" as="geometry" />
        </mxCell>
        <mxCell id="gxFCZdxq8-a961sb9cm7-69" style="edgeStyle=orthogonalEdgeStyle;rounded=0;orthogonalLoop=1;jettySize=auto;html=1;exitX=0.5;exitY=1;exitDx=0;exitDy=0;" edge="1" source="gxFCZdxq8-a961sb9cm7-64" target="gxFCZdxq8-a961sb9cm7-64" parent="1">
          <mxGeometry relative="1" as="geometry" />
        </mxCell>
        <mxCell id="gxFCZdxq8-a961sb9cm7-70" value="" style="rounded=1;whiteSpace=wrap;html=1;" vertex="1" parent="1">
          <mxGeometry x="171" y="669" width="138" height="100" as="geometry" />
        </mxCell>
        <mxCell id="gxFCZdxq8-a961sb9cm7-71" value="" style="rounded=1;whiteSpace=wrap;html=1;" vertex="1" parent="1">
          <mxGeometry x="165.12" y="600" width="143.5" height="30" as="geometry" />
        </mxCell>
        <mxCell id="gxFCZdxq8-a961sb9cm7-72" value="New instruction" style="text;html=1;strokeColor=none;fillColor=none;align=center;verticalAlign=middle;whiteSpace=wrap;rounded=0;" vertex="1" parent="1">
          <mxGeometry x="66" y="635" width="91" height="30" as="geometry" />
        </mxCell>
        <mxCell id="gxFCZdxq8-a961sb9cm7-73" value="Instructions for {plant.name}" style="text;html=1;strokeColor=none;fillColor=none;align=center;verticalAlign=middle;whiteSpace=wrap;rounded=0;" vertex="1" parent="1">
          <mxGeometry x="209.12" y="639" width="106" height="30" as="geometry" />
        </mxCell>
        <mxCell id="gxFCZdxq8-a961sb9cm7-74" value="&lt;p style=&quot;line-height: 90%; font-size: 10px;&quot;&gt;&lt;font style=&quot;font-size: 10px;&quot;&gt;Save instruction&lt;/font&gt;&lt;/p&gt;" style="rounded=1;whiteSpace=wrap;html=1;spacing=2;" vertex="1" parent="1">
          <mxGeometry x="101.87" y="778" width="57.13" height="30" as="geometry" />
        </mxCell>
        <mxCell id="gxFCZdxq8-a961sb9cm7-75" value="" style="rounded=1;whiteSpace=wrap;html=1;" vertex="1" parent="1">
          <mxGeometry x="210" y="539" width="14" height="15.56" as="geometry" />
        </mxCell>
        <mxCell id="gxFCZdxq8-a961sb9cm7-76" value="Make changes" style="text;html=1;strokeColor=none;fillColor=none;align=center;verticalAlign=middle;whiteSpace=wrap;rounded=0;" vertex="1" parent="1">
          <mxGeometry x="226" y="532.5" width="83.37" height="30" as="geometry" />
        </mxCell>
        <mxCell id="gxFCZdxq8-a961sb9cm7-77" value="&lt;p style=&quot;line-height: 90%; font-size: 10px;&quot;&gt;&lt;font style=&quot;font-size: 10px;&quot;&gt;Delete instruction&lt;/font&gt;&lt;/p&gt;" style="rounded=1;whiteSpace=wrap;html=1;spacing=2;" vertex="1" parent="1">
          <mxGeometry x="252.24" y="777" width="57.13" height="30" as="geometry" />
        </mxCell>
        <mxCell id="gxFCZdxq8-a961sb9cm7-78" value="Search" style="rounded=1;whiteSpace=wrap;html=1;" vertex="1" parent="1">
          <mxGeometry x="109" y="209" width="50" height="16" as="geometry" />
        </mxCell>
        <mxCell id="gxFCZdxq8-a961sb9cm7-81" value="&lt;p style=&quot;line-height: 100%;&quot;&gt;&lt;font color=&quot;#660000&quot; style=&quot;font-size: 10px;&quot;&gt;Sorry, we don&#39;t have that plant in our register. Please press &quot;Add new plant&quot; if you would like to add it to the collection or choose one in the view to the right!&lt;/font&gt;&lt;/p&gt;" style="text;html=1;strokeColor=none;fillColor=none;align=center;verticalAlign=middle;whiteSpace=wrap;rounded=0;" vertex="1" parent="1">
          <mxGeometry x="53.44" y="245" width="102.13" height="80" as="geometry" />
        </mxCell>
      </root>
    </mxGraphModel>
  </diagram>
</mxfile>
